# xmcd
#
# Track frame offsets:
#	150
#	23360
#	40092
#	55850
#	70180
#	86407
#	105372
#	119632
#	133350
#	152317
#	168392
#	191605
#	208337
#	224095
#	238427
#	254655
#	273617
#	287877
#	301595
#	320565
#
# Disc length: 4487 seconds
#
# Revision: 3
# Processed by: cddbd v1.5.2PL0 Copyright (c) Steve Scherf et al.
# Submitted via: audiograbber 1.83.01
#
DISCID=2f118514
DTITLE=Various Artist - THC0203
DYEAR=2002
DGENRE=Karaoke
TTITLE0=Alan Jackson - Where Were You (When The World Stopped Turning ) (vocals
TTITLE0=)
TTITLE1=Tim McGraw  - The Cowboy In Me (vocals)
TTITLE2=Phil Vassar - That's When I Love You (vocals)
TTITLE3=Emerson Drive - I Should Be Sleeping (vocals)
TTITLE4=Trisha Yearwood and Dave Henley - Inside Out (vocals)
TTITLE5=Mark McGuinn - She Doesn't Dance (vocals)
TTITLE6=Blackhawk - Days Of America (vocals)
TTITLE7=Alan Jackson - It's Alright To Be A Redneck (vocals)
TTITLE8=Mark Wills and Jamie O'Neal -  I'm Not Gonna Do Anything Without You (voc
TTITLE8=als)
TTITLE9=Charlie Daniels Band - This Ain't No Rag, Its A Flag (vocals)
TTITLE10=Alan Jackson - Where Were You (When The World Stopped Turning)
TTITLE11=Tim McGraw  - The Cowboy In Me
TTITLE12=Phil Vasser - That's When I Love You
TTITLE13=Emerson Drive - I Should Be Sleeping
TTITLE14=Trisha Yearwood and Dave Henley - Inside Out
TTITLE15=Mark McGuinn - She Doesn't Dance
TTITLE16=Blackhawk - Days Of America
TTITLE17=Alan Jackson - It's Alright To Be A Redneck
TTITLE18=Mark Wills and Jamie O'Neal - I'm Not Gonna Do Anything Without You
TTITLE19=Charlie Daniels Band - This Ain't No Rag, Its A Flag
EXTD=
EXTT0=
EXTT1=
EXTT2=
EXTT3=
EXTT4=
EXTT5=
EXTT6=
EXTT7=
EXTT8=
EXTT9=
EXTT10=
EXTT11=
EXTT12=
EXTT13=
EXTT14=
EXTT15=
EXTT16=
EXTT17=
EXTT18=
EXTT19=
PLAYORDER=
